<svg width="32" height="32" viewBox="0 0 32 32" fill="none" xmlns="http://www.w3.org/2000/svg">
<path d="M16.0234 0H15.9506C7.13673 0 -0.00830078 7.14713 -0.00830078 15.9636V16.0364C-0.00830078 24.8529 7.13673 32 15.9506 32H16.0234C24.8372 32 31.9823 24.8529 31.9823 16.0364V15.9636C31.9823 7.14713 24.8372 0 16.0234 0Z" fill="#F7F7F7"/>
<path d="M20.937 6.51025H11.0382C8.30349 6.51025 6.07874 8.73567 6.07874 11.4712V20.5298C6.07874 23.2653 8.30349 25.4907 11.0382 25.4907H20.937C23.6717 25.4907 25.8965 23.2653 25.8965 20.5298V11.4712C25.8965 8.73567 23.6717 6.51025 20.937 6.51025ZM7.82828 11.4712C7.82828 9.70095 9.26849 8.26031 11.0382 8.26031H20.937C22.7067 8.26031 24.1469 9.70095 24.1469 11.4712V20.5298C24.1469 22.3 22.7067 23.7407 20.937 23.7407H11.0382C9.26849 23.7407 7.82828 22.3 7.82828 20.5298V11.4712Z" fill="#2D6BBF"/>
<path d="M15.9877 20.614C18.5307 20.614 20.6008 18.5445 20.6008 15.9995C20.6008 13.4546 18.5319 11.385 15.9877 11.385C13.4435 11.385 11.3745 13.4546 11.3745 15.9995C11.3745 18.5445 13.4435 20.614 15.9877 20.614ZM15.9877 13.1362C17.5669 13.1362 18.8513 14.421 18.8513 16.0006C18.8513 17.5803 17.5669 18.8651 15.9877 18.8651C14.4085 18.8651 13.1241 17.5803 13.1241 16.0006C13.1241 14.421 14.4085 13.1362 15.9877 13.1362Z" fill="#2D6BBF"/>
<path d="M21.0279 12.1304C21.7127 12.1304 22.2708 11.5732 22.2708 10.8871C22.2708 10.201 21.7138 9.6438 21.0279 9.6438C20.3419 9.6438 19.7849 10.201 19.7849 10.8871C19.7849 11.5732 20.3419 12.1304 21.0279 12.1304Z" fill="#2D6BBF"/>
</svg>
