<svg width="33" height="32" viewBox="0 0 33 32" fill="none" xmlns="http://www.w3.org/2000/svg">
<path d="M17.0141 0H16.9413C8.12744 0 0.982422 7.14713 0.982422 15.9636V16.0364C0.982422 24.8529 8.12744 32 16.9413 32H17.0141C25.828 32 32.973 24.8529 32.973 16.0364V15.9636C32.973 7.14713 25.828 0 17.0141 0Z" fill="#F7F7F7"/>
<path d="M7.04132 15.4547C7.08615 15.4323 7.13101 15.411 7.17472 15.3908C7.93461 15.0388 8.70459 14.7092 9.47345 14.3795C9.51492 14.3795 9.58439 14.3313 9.62362 14.3156C9.68302 14.2899 9.74243 14.2652 9.80183 14.2394C9.91615 14.1901 10.0305 14.1419 10.1437 14.0925C10.3723 13.995 10.5998 13.8975 10.8285 13.7999L12.1969 13.2136C13.1093 12.8234 14.0227 12.4322 14.935 12.042C15.8474 11.6519 16.7608 11.2606 17.6731 10.8705C18.5854 10.4803 19.4989 10.089 20.4112 9.69889C21.3235 9.30874 22.237 8.91747 23.1493 8.52732C23.3521 8.43988 23.5718 8.30982 23.7892 8.27171C23.9719 8.23919 24.1501 8.17642 24.3339 8.14166C24.6825 8.07551 25.0669 8.04861 25.4009 8.19323C25.5164 8.24368 25.6228 8.31431 25.7114 8.40288C26.135 8.82218 26.0756 9.51054 25.986 10.1002C25.3617 14.2103 24.7374 18.3214 24.112 22.4314C24.0268 22.9953 23.9103 23.6142 23.4653 23.9707C23.0887 24.2723 22.553 24.3059 22.0879 24.1781C21.6227 24.0492 21.2125 23.779 20.8102 23.5133C19.1413 22.4079 17.4714 21.3024 15.8025 20.197C15.4058 19.9347 14.9642 19.5916 14.9687 19.1151C14.9709 18.8281 15.1424 18.5725 15.3172 18.3449C16.7675 16.4525 18.86 15.152 20.4168 13.347C20.6365 13.0925 20.8091 12.6328 20.5076 12.486C20.3283 12.3985 20.122 12.5174 19.9584 12.6306C17.9006 14.06 15.844 15.4906 13.7862 16.92C13.1149 17.3864 12.411 17.8662 11.6018 17.9806C10.8778 18.0837 10.1493 17.8819 9.4488 17.6756C8.8615 17.503 8.27531 17.3258 7.69138 17.1431C7.38093 17.0467 7.06038 16.9424 6.82053 16.7238C6.58068 16.5052 6.44285 16.1375 6.58743 15.846C6.67821 15.6632 6.85418 15.5477 7.03911 15.4536L7.04132 15.4547Z" fill="#2D6BBF"/>
</svg>
