<svg width="32" height="32" viewBox="0 0 32 32" fill="none" xmlns="http://www.w3.org/2000/svg">
<path d="M31.9895 16.0006C31.9895 24.0816 26.0011 30.7623 18.2217 31.8464C17.4943 31.9473 16.7501 32 15.9947 32C15.1228 32 14.2665 31.9305 13.4326 31.796C5.81688 30.5695 0 23.9638 0 16.0006C0 7.16393 7.16182 0 15.9959 0C24.8299 0 31.9917 7.16393 31.9917 16.0006H31.9895Z" fill="#F7F7F7"/>
<path d="M18.2217 12.8479V16.3335H22.5322L21.8497 21.0287H18.2217V31.8463C17.4943 31.9473 16.7501 31.9999 15.9947 31.9999C15.1227 31.9999 14.2664 31.9304 13.4326 31.7959V21.0287H9.45715V16.3335H13.4326V12.0688C13.4326 9.42292 15.5766 7.2771 18.2228 7.2771V7.27934C18.2307 7.27934 18.2374 7.2771 18.2452 7.2771H22.5334V11.3378H19.7314C18.8987 11.3378 18.2228 12.0138 18.2228 12.8468L18.2217 12.8479Z" fill="#2D6BBF"/>
</svg>
