<svg width="33" height="32" viewBox="0 0 33 32" fill="none" xmlns="http://www.w3.org/2000/svg">
<path d="M17.0046 0H16.9318C8.11794 0 0.9729 7.14713 0.9729 15.9636V16.0364C0.9729 24.8529 8.11794 32 16.9318 32H17.0046C25.8184 32 32.9635 24.8529 32.9635 16.0364V15.9636C32.9635 7.14713 25.8184 0 17.0046 0Z" fill="#F7F7F7"/>
<path d="M8.6023 10.6361C8.18089 10.2449 7.97131 9.76054 7.97131 9.18429C7.97131 8.60804 8.18201 8.10241 8.6023 7.71002C9.02372 7.31875 9.56618 7.12256 10.2308 7.12256C10.8954 7.12256 11.4166 7.31875 11.8369 7.71002C12.2583 8.10129 12.4679 8.59346 12.4679 9.18429C12.4679 9.77512 12.2572 10.2449 11.8369 10.6361C11.4155 11.0274 10.8809 11.2236 10.2308 11.2236C9.58075 11.2236 9.02372 11.0274 8.6023 10.6361ZM12.1137 12.8806V24.8765H8.32435V12.8806H12.1137Z" fill="#2D6BBF"/>
<path d="M24.7281 14.0656C25.5541 14.9624 25.9666 16.1934 25.9666 17.7608V24.6646H22.3678V18.2473C22.3678 17.4569 22.1627 16.8426 21.7536 16.4053C21.3445 15.9681 20.7931 15.7483 20.1027 15.7483C19.4122 15.7483 18.8608 15.967 18.4517 16.4053C18.0426 16.8426 17.8375 17.4569 17.8375 18.2473V24.6646H14.2174V12.8469H17.8375V14.4142C18.204 13.8918 18.6983 13.4792 19.3192 13.1754C19.9401 12.8716 20.6384 12.7202 21.4151 12.7202C22.7981 12.7202 23.9032 13.1687 24.7281 14.0644V14.0656Z" fill="#2D6BBF"/>
</svg>
